<?xml version="1.0" encoding="utf-8"?>
<!-- Generator: Adobe Illustrator 25.4.1, SVG Export Plug-In . SVG Version: 6.00 Build 0)  -->
<svg version="1.1" id="Layer_1" xmlns="http://www.w3.org/2000/svg" xmlns:xlink="http://www.w3.org/1999/xlink" x="0px" y="0px"
	 viewBox="0 0 108.4 93.2" style="enable-background:new 0 0 108.4 93.2;" xml:space="preserve">
<style type="text/css">
	.st0{fill:url(#SVGID_1_);}
</style>
<linearGradient id="SVGID_1_" gradientUnits="userSpaceOnUse" x1="1.8179" y1="28.6904" x2="98.4474" y2="76.0849" gradientTransform="matrix(1 0 0 -1 0 96.0001)">
	<stop  offset="0" style="stop-color:#C6015C"/>
	<stop  offset="0.1648" style="stop-color:#FE4B61"/>
	<stop  offset="0.3156" style="stop-color:#FE725B"/>
	<stop  offset="0.4553" style="stop-color:#FFCC57"/>
	<stop  offset="0.5726" style="stop-color:#FFD9B5"/>
	<stop  offset="0.6899" style="stop-color:#FCC8D3"/>
	<stop  offset="0.7961" style="stop-color:#8A43F6"/>
	<stop  offset="0.9134" style="stop-color:#07EDFA"/>
	<stop  offset="1" style="stop-color:#00ECF2"/>
</linearGradient>
<path class="st0" d="M108.4,51.8c-0.1-1.3-1.1-2.1-2.3-2.6c-0.5-0.2-0.9-0.3-1.4-0.4c-2.4-0.3-2.4-0.3-1.3-2.5
	c1.7-3.4,0.3-6.2-3.5-6.5c-2.1-0.2-1.9-0.9-1.1-2.5c1.8-3.5,0.6-6-3.3-6.6c-1.9-0.3-2.1-0.9-1.2-2.6c1.8-3.2,0.5-5.8-3-6.5
	c-2.4-0.5-2.4-0.5-1.3-2.8c0.1-0.3,0.2-0.5,0.3-0.8c0.4-1.3,0.4-2.6-0.6-3.6c-1.1-1.1-2.2-0.3-3.3,0.2c-4.2,2.1-8.4,4.2-12.6,6.3
	c-2.2,1.1-2.4,1-2.3-1.4c0.2-4.9-2-6.7-6.8-5.3c-1.8,0.5-2.4,0-2.1-1.7c0.1-0.5,0.1-1,0.1-1.5c-0.1-3.2-2.3-5-5.4-4.3
	c-0.5,0.1-0.9,0.3-1.4,0.4c-2,0.5-2.3,0.3-2.1-1.8c0.1-0.9,0.2-1.8-0.1-2.7c-0.3-1.1-0.9-2.1-2.1-2.5c-1.3-0.4-2,0.5-2.6,1.4
	c-1.2,1.6-2.5,3.1-3.7,4.6L1,60.8c-0.6,0.8-1.4,1.6-0.8,2.7C0.7,64.6,1.8,65,3,65.2c0.9,0.1,1.8-0.2,2.7-0.5c2.5-0.8,2.7-0.7,2.3,2
	c-0.5,4.1,2.1,6.4,6.1,5.3c2.8-0.8,2.8-0.8,2.7,2.1c-0.1,4.3,2.2,6.1,6.4,5c2.7-0.7,2.7-0.7,2.5,2.2c-0.1,1.6,0.1,3.1,1.3,4.3
	c1.4,1.3,3.1,1.2,4.8,0.7c2.9-0.8,2.9-0.8,2.6,2.1c-0.2,1.1,0,2.3,0.6,3.3c1.1,1.8,2.5,2,3.9,0.4c1.1-1.3,2.2-2.6,3.2-4
	c1.5-2.1,3.5-3.7,5.9-4.8c12.2-6,24.3-12.1,36.4-18.2c7.3-3.7,14.6-7.3,21.9-11C107.3,53.7,108.5,53.2,108.4,51.8z M38.6,86.7
	c-0.9-4.3-2.8-5.5-6.6-4.4c-2.7,0.8-2.8,0.7-2.6-2c0.4-4.2-2.1-6.3-6.2-5.1c-2.8,0.8-2.8,0.8-2.5-2.2c0.3-3.9-2.3-6.1-6-5
	c-0.4,0.1-0.8,0.3-1.2,0.4c-1.4,0.4-2.1,0-1.8-1.6c0.3-1.6,0.3-3.3-0.8-4.7c-0.6-0.9-1.6-1.5-2.7-1.5c-1.8-0.1-1.7-0.6-0.7-1.8
	C21.3,41.7,35.1,24.7,48.8,7.6c0.2-0.3,0.5-0.5,0.7-0.8C49.7,6.9,49.9,7,49.9,7c0.8,3.7,2.7,4.9,6.3,3.9c2.9-0.8,2.9-0.8,2.6,2.1
	c-0.4,3.8,2.1,6.1,6,5.1c3-0.7,3-0.7,2.8,2.2c-0.2,3.9,2.3,6,6.1,4.9c2.8-0.8,2.8-0.8,2.8,2.2c-0.1,3.7,1.1,4.9,5.5,5.6L38.6,86.7z
	 M51.7,77.4L51.3,77c2.7-3.3,5.3-6.6,8-9.9L87,32.7c0.8-1,1.9-2,0.9-3.4c-0.9-1.3-2.3-1.5-3.8-1.3c-1.2,0.2-2.5,1.4-3.6,0.6
	c-1-0.8,0.2-2.3,0-3.5c0-0.1,0-0.1,0-0.2c0.1-1-1.2-2-0.2-2.8c1.1-0.9,2.5-1.4,3.7-2c0.7-0.4,0.9-0.1,1.1,0.7
	c0.6,3.2,1.2,3.9,4.2,4.4c1.8,0.3,2.1,0.8,1.2,2.4c-1.8,3.3-0.7,5.9,3.1,6.6c1.8,0.3,2.5,0.7,1.4,2.6c-1.8,3.3-0.4,5.9,3.3,6.5
	c1.9,0.3,2.3,0.7,1.3,2.5c-1.6,2.8-1.1,4.3,1.9,6.7L51.7,77.4z M63.4,40.4c-0.8,1.2-1.7,2.3-2.6,3.4C55,51,49.1,58.3,43.3,65.5
	c-0.6,0.8-1.2,1.6-2.3,1.7c-1.4,0-2.3-1.4-1.5-2.7c0.5-0.8,1.2-1.6,1.8-2.3c6.1-7.6,12.2-15.1,18.3-22.7c0.3-0.4,0.7-0.9,1.1-1.3
	c0.7-0.6,1.7-0.6,2.3,0C63.9,38.8,63.9,39.7,63.4,40.4z M61.3,50.8c0,0.7-0.3,1.3-0.7,1.8c-2.3,2.9-4.7,5.9-7.1,8.8
	c-0.8,0.9-1.7,1.7-2.9,0.8c-1.2-1-0.8-2.1,0-3.2c2.4-3,4.8-6,7.2-8.9c0.6-0.7,1.3-1.1,2.2-0.8C60.8,49.5,61.3,50.1,61.3,50.8z
	 M55.9,37.7c-1,1.3-2,2.6-3.1,3.8c-0.6,0.6-1.3,0.6-1.9,0.1c-1.6-1.3-3.2-2.6-4.8-3.9c-0.8-0.7-1-1.5-0.3-2.4
	c0.8-1.1,1.7-2.1,2.6-3.1c0.4-0.5,1-0.9,1.7-0.4c0.8,0.6,0.4,1.3-0.1,1.8c-0.5,0.6-1,1.2-1.4,1.8c-0.3,0.4-0.3,0.8,0.2,1.1
	c0.4,0.2,0.7,0,0.9-0.3c0.5-0.6,1-1.2,1.6-1.7c0.3-0.4,0.9-0.5,1.3-0.2c0.3,0.2,0.4,0.6,0.4,1.1c-0.2,0.8-1,1.4-1.5,2.2
	c-0.2,0.4-0.4,0.8,0,1.1c0.4,0.3,0.8,0,1.1-0.3c0.6-0.6,1.1-1.3,1.7-1.9c0.4-0.5,1-0.6,1.5-0.3C56.4,36.5,56.3,37.2,55.9,37.7z
	 M50.7,43.6c0.1,1.3-1.2,1.1-2.1,1.2c-0.3,0-0.7,0-1.1,0c-0.6,0.1-1.4-0.3-1.7,0.4c-0.4,0.7,0.4,1.1,0.8,1.6
	c0.5,0.6,0.9,1.2,0.3,1.9c-0.7,0.8-1.4,0.3-2-0.2c-1.4-1.1-2.9-2.3-4.3-3.5c-0.6-0.5-1.6-1.1-0.9-2.1c0.7-1.1,1.6-0.4,2.4,0.1
	c0.2,0.2,0.5,0.3,1.1,0.6c-0.1-1.6-0.3-2.7-0.3-3.9c0-0.7,0.1-1.5,1.1-1.6c0.9-0.1,1.3,0.7,1.2,1.4c-0.2,2.7,1.3,3.1,3.5,2.9
	C49.5,42.4,50.7,42.3,50.7,43.6z M44.3,51.5c-0.4,2.2-2.6,4-4.9,4c-2.3,0-4.2-1.6-4.8-3.8c-0.5-2,0.7-4.6,2.7-5.5
	c0.8-0.4,1.7-0.8,2.2,0.2c0.5,0.9-0.2,1.4-0.9,1.8c-1.2,0.6-1.8,1.6-1.5,2.9c0.3,1.3,1.3,1.9,2.5,1.9c1.4,0.1,2.1-0.9,2.5-2.2
	c0.2-0.8,0.5-1.7,1.5-1.3C44.6,49.8,44.4,50.7,44.3,51.5z M34.3,64.3c-0.7,1-1.5,0.3-2.2-0.2c-0.9-0.7-1.9-1.5-2.8-2.2
	c-0.3-0.3-0.7-0.5-1-0.6c-0.8,0-1,0.6-1.5,0.9c-0.4,0.3-0.9,0.4-1.4,0.1c-0.5-0.3-0.6-0.9-0.3-1.4c0,0,0.1-0.1,0.1-0.1
	c1.2-1.5,2.4-3,3.6-4.5c0.4-0.4,1.1-0.4,1.5,0.1c0.3,0.3,0.4,0.9,0.1,1.3c-1.1,1.3-0.2,2,0.8,2.7c0.8,0.6,1.6,1.2,2.3,1.9
	C34.3,62.7,35,63.4,34.3,64.3z M59.6,33.1c-0.6,0.8-1.4,0.4-2,0c-0.7-0.5-1.3-1.1-2-1.6c-1.1-0.9-2.2-2.5-3.7-0.5
	c-0.2,0.3-0.8,0.2-1.2-0.1c-0.4-0.3-0.5-0.8-0.3-1.2c1.1-1.8,2.5-3.5,4-4.9c0.1-0.1,0.4-0.1,0.6-0.2c1,0.3,1.3,1,0.7,1.8
	c-1,1.2-0.3,1.8,0.6,2.6c0.9,0.7,1.9,1.5,2.8,2.3C59.7,31.7,60.2,32.3,59.6,33.1z M38.7,58.7c-0.3,1.1-1.1,1.4-1.9,0.8
	c-1.9-1.4-3.8-3-5.6-4.6c-0.4-0.3-0.4-0.9-0.1-1.4c0.3-0.4,0.8-0.7,1.3-0.4c2.2,1.4,4.3,3.1,6.1,4.9C38.6,58.3,38.6,58.5,38.7,58.7z
	 M31.4,48.1l-1.3,0.6c-0.2,0.1-0.3,0.2-0.3,0.3l-0.3,1.4c-0.1,0.3-0.3,0.4-0.6,0.4c-0.1,0-0.2-0.1-0.3-0.2l-0.9-1.1
	c-0.1-0.1-0.3-0.2-0.4-0.2l-1.4,0.2c-0.3,0-0.5-0.2-0.6-0.4c0-0.1,0-0.2,0.1-0.3l0.7-1.2c0.1-0.1,0.1-0.3,0-0.4l-0.6-1.3
	c-0.1-0.2,0-0.5,0.2-0.7c0.1-0.1,0.2-0.1,0.3,0l1.4,0.3c0.2,0,0.3,0,0.4-0.1l1-0.9c0.2-0.2,0.5-0.2,0.7,0c0.1,0.1,0.1,0.2,0.1,0.3
	l0.1,1.4c0,0.2,0.1,0.3,0.2,0.4l1.2,0.7c0.2,0.1,0.3,0.4,0.2,0.7C31.6,48,31.5,48,31.4,48.1z M43.8,32.9l-1.3,0.6
	c-0.2,0.1-0.3,0.2-0.3,0.3l-0.3,1.4c-0.1,0.3-0.3,0.4-0.6,0.4c-0.1,0-0.2-0.1-0.3-0.2l-0.9-1.1c-0.1-0.1-0.3-0.2-0.4-0.2l-1.4,0.2
	c-0.3,0-0.5-0.2-0.6-0.4c0-0.1,0-0.2,0.1-0.3l0.7-1.2c0.1-0.1,0.1-0.3,0-0.4L38,30.7c-0.1-0.2,0-0.5,0.2-0.7c0.1-0.1,0.2-0.1,0.3,0
	l1.4,0.3c0.2,0,0.3,0,0.4-0.1l1-0.9c0.2-0.2,0.5-0.2,0.7,0c0.1,0.1,0.1,0.2,0.1,0.3l0.1,1.4c0,0.2,0.1,0.3,0.2,0.4l1.2,0.7
	c0.2,0.1,0.3,0.4,0.2,0.7C44,32.8,43.9,32.9,43.8,32.9z M38.1,39.8L36,40.7c-0.2,0.1-0.4,0.3-0.5,0.6l-0.4,2.2
	c-0.1,0.4-0.5,0.7-0.9,0.6c-0.2,0-0.3-0.1-0.4-0.3l-1.5-1.7c-0.2-0.2-0.4-0.3-0.7-0.3l-2.3,0.3c-0.4,0.1-0.8-0.3-0.9-0.7
	c0-0.2,0-0.4,0.1-0.5l1.2-2c0.1-0.2,0.2-0.5,0.1-0.7l-0.9-2.1c-0.2-0.4,0-0.9,0.4-1.1c0.2-0.1,0.3-0.1,0.5-0.1l2.2,0.5
	c0.3,0.1,0.5,0,0.7-0.2l1.7-1.5c0.3-0.3,0.8-0.3,1.1,0c0.1,0.1,0.2,0.3,0.2,0.5l0.2,2.3c0,0.3,0.2,0.5,0.4,0.6l2,1.1
	c0.4,0.2,0.5,0.7,0.3,1.1C38.5,39.6,38.3,39.7,38.1,39.8z"/>
</svg>
