<?xml version="1.0" encoding="utf-8"?>
<!-- Generator: Adobe Illustrator 25.4.1, SVG Export Plug-In . SVG Version: 6.00 Build 0)  -->
<svg version="1.1" id="Layer_1" xmlns="http://www.w3.org/2000/svg" xmlns:xlink="http://www.w3.org/1999/xlink" x="0px" y="0px"
	 viewBox="0 0 1080 1080" style="enable-background:new 0 0 1080 1080;" xml:space="preserve">
<style type="text/css">
	.st0{fill:#FFFFFF;}
</style>
<path class="st0" d="M336.1,257.7c-10.9-14.4-31.3-17.3-45.8-6.5c-49.3,37.2-78.4,95.3-78.6,157.1c0.3,18.1,15.2,32.5,33.3,32.2
	c17.7-0.3,31.9-14.6,32.2-32.2c-0.1-41.2,19.3-80.2,52.4-104.8C344.1,292.6,347,272.1,336.1,257.7z M408.3,211.8
	c-18.1,0-32.7,14.7-32.7,32.8s14.7,32.7,32.7,32.7c18.1,0,32.7-14.7,32.7-32.7C441.1,226.4,426.4,211.8,408.3,211.8L408.3,211.8z
	 M408.3,211.8c-18.1,0-32.7,14.7-32.7,32.8s14.7,32.7,32.7,32.7c18.1,0,32.7-14.7,32.7-32.7C441.1,226.4,426.4,211.8,408.3,211.8
	L408.3,211.8z M336.1,257.7c-10.9-14.4-31.3-17.3-45.8-6.5c-49.3,37.2-78.4,95.3-78.6,157.1c0.3,18.1,15.2,32.5,33.3,32.2
	c17.7-0.3,31.9-14.6,32.2-32.2c-0.1-41.2,19.3-80.2,52.4-104.8C344.1,292.6,347,272.1,336.1,257.7z M336.1,257.7
	c-10.9-14.4-31.3-17.3-45.8-6.5c-49.3,37.2-78.4,95.3-78.6,157.1c0.3,18.1,15.2,32.5,33.3,32.2c17.7-0.3,31.9-14.6,32.2-32.2
	c-0.1-41.2,19.3-80.2,52.4-104.8C344.1,292.6,347,272.1,336.1,257.7z M408.3,211.8c-18.1,0-32.7,14.7-32.7,32.8s14.7,32.7,32.7,32.7
	c18.1,0,32.7-14.7,32.7-32.7C441.1,226.4,426.4,211.8,408.3,211.8L408.3,211.8z M408.3,211.8c-18.1,0-32.7,14.7-32.7,32.8
	s14.7,32.7,32.7,32.7c18.1,0,32.7-14.7,32.7-32.7C441.1,226.4,426.4,211.8,408.3,211.8L408.3,211.8z M290.3,251.2
	c-49.3,37.2-78.4,95.3-78.6,157.1c0.3,18.1,15.2,32.5,33.3,32.2c17.7-0.3,31.9-14.6,32.2-32.2c-0.1-41.2,19.3-80.2,52.4-104.8
	c14.5-10.9,17.4-31.4,6.5-45.9C325.3,243.1,304.8,240.2,290.3,251.2L290.3,251.2z M408.3,113.5c-162.6,0-294.8,132.3-294.8,294.8
	s132.3,294.8,294.8,294.8s294.8-132.3,294.8-294.8S570.8,113.5,408.3,113.5z M408.3,637.5c-126.5,0-229.3-102.9-229.3-229.3
	s102.9-229.3,229.3-229.3s229.3,102.9,229.3,229.3S534.7,637.6,408.3,637.5L408.3,637.5z M408.3,211.8c-18.1,0-32.7,14.7-32.7,32.8
	s14.7,32.7,32.7,32.7c18.1,0,32.7-14.7,32.7-32.7C441.1,226.4,426.3,211.8,408.3,211.8L408.3,211.8z M290.3,251.2
	c-49.3,37.2-78.4,95.3-78.6,157.1c0.3,18.1,15.2,32.5,33.3,32.2c17.7-0.3,31.9-14.6,32.2-32.2c-0.1-41.2,19.3-80.2,52.4-104.8
	c14.5-10.9,17.4-31.4,6.5-45.9C325.3,243.1,304.8,240.2,290.3,251.2L290.3,251.2z M336.2,257.7c-10.9-14.5-31.4-17.4-45.9-6.5
	c-49.3,37.2-78.4,95.3-78.6,157.1c0.3,18.1,15.2,32.5,33.3,32.2c17.7-0.3,31.9-14.6,32.2-32.2c-0.1-41.2,19.3-80.2,52.4-104.8
	C344.1,292.6,347,272.1,336.2,257.7L336.2,257.7z M408.4,211.8c-18.1,0-32.7,14.7-32.7,32.8s14.7,32.7,32.8,32.7
	c18.1,0,32.7-14.7,32.7-32.7C441.1,226.4,426.4,211.8,408.4,211.8C408.4,211.8,408.3,211.8,408.4,211.8L408.4,211.8z M408.4,211.8
	c-18.1,0-32.7,14.7-32.7,32.8s14.7,32.7,32.8,32.7c18.1,0,32.7-14.7,32.7-32.7C441.1,226.4,426.4,211.8,408.4,211.8
	C408.4,211.8,408.3,211.8,408.4,211.8L408.4,211.8z M336.2,257.7c-10.9-14.5-31.4-17.4-45.9-6.5c-49.3,37.2-78.4,95.3-78.6,157.1
	c0.3,18.1,15.2,32.5,33.3,32.2c17.7-0.3,31.9-14.6,32.2-32.2c-0.1-41.2,19.3-80.2,52.4-104.8C344.1,292.6,347,272.1,336.2,257.7
	L336.2,257.7z M336.2,257.7c-10.9-14.5-31.4-17.4-45.9-6.5c-49.3,37.2-78.4,95.3-78.6,157.1c0.3,18.1,15.2,32.5,33.3,32.2
	c17.7-0.3,31.9-14.6,32.2-32.2c-0.1-41.2,19.3-80.2,52.4-104.8C344.1,292.6,347,272.1,336.2,257.7L336.2,257.7z M408.4,211.8
	c-18.1,0-32.7,14.7-32.7,32.8s14.7,32.7,32.8,32.7c18.1,0,32.7-14.7,32.7-32.7C441.1,226.4,426.4,211.8,408.4,211.8
	C408.4,211.8,408.3,211.8,408.4,211.8L408.4,211.8z M336.2,257.7c-10.9-14.5-31.4-17.4-45.9-6.5c-49.3,37.2-78.4,95.3-78.6,157.1
	c0.3,18.1,15.2,32.5,33.3,32.2c17.7-0.3,31.9-14.6,32.2-32.2c-0.1-41.2,19.3-80.2,52.4-104.8C344.1,292.6,347,272.1,336.2,257.7
	L336.2,257.7z M336.2,257.7c-10.9-14.5-31.4-17.4-45.9-6.5c-49.3,37.2-78.4,95.3-78.6,157.1c0.3,18.1,15.2,32.5,33.3,32.2
	c17.7-0.3,31.9-14.6,32.2-32.2c-0.1-41.2,19.3-80.2,52.4-104.8C344.1,292.6,347,272.1,336.2,257.7L336.2,257.7z M408.4,211.8
	c-18.1,0-32.7,14.7-32.7,32.8s14.7,32.7,32.8,32.7c18.1,0,32.7-14.7,32.7-32.7C441.1,226.4,426.4,211.8,408.4,211.8
	C408.4,211.8,408.3,211.8,408.4,211.8L408.4,211.8z M408.4,211.8c-18.1,0-32.7,14.7-32.7,32.8s14.7,32.7,32.8,32.7
	c18.1,0,32.7-14.7,32.7-32.7C441.1,226.4,426.4,211.8,408.4,211.8C408.4,211.8,408.3,211.8,408.4,211.8L408.4,211.8z M336.2,257.7
	c-10.9-14.5-31.4-17.4-45.9-6.5c-49.3,37.2-78.4,95.3-78.6,157.1c0.3,18.1,15.2,32.5,33.3,32.2c17.7-0.3,31.9-14.6,32.2-32.2
	c-0.1-41.2,19.3-80.2,52.4-104.8C344.1,292.6,347,272.1,336.2,257.7L336.2,257.7z M336.2,257.7c-10.9-14.5-31.4-17.4-45.9-6.5
	c-49.3,37.2-78.4,95.3-78.6,157.1c0.3,18.1,15.2,32.5,33.3,32.2c17.7-0.3,31.9-14.6,32.2-32.2c-0.1-41.2,19.3-80.2,52.4-104.8
	C344.1,292.6,347,272.1,336.2,257.7L336.2,257.7z M408.4,211.8c-18.1,0-32.7,14.7-32.7,32.8s14.7,32.7,32.8,32.7
	c18.1,0,32.7-14.7,32.7-32.7C441.1,226.4,426.4,211.8,408.4,211.8C408.4,211.8,408.3,211.8,408.4,211.8L408.4,211.8z M408.4,211.8
	c-18.1,0-32.7,14.7-32.7,32.8s14.7,32.7,32.8,32.7c18.1,0,32.7-14.7,32.7-32.7C441.1,226.4,426.4,211.8,408.4,211.8
	C408.4,211.8,408.3,211.8,408.4,211.8L408.4,211.8z M290.3,251.2c-49.3,37.2-78.4,95.3-78.6,157.1c0.3,18.1,15.2,32.5,33.3,32.2
	c17.7-0.3,31.9-14.6,32.2-32.2c-0.1-41.2,19.3-80.2,52.4-104.8c14.5-10.9,17.4-31.4,6.5-45.9C325.3,243.1,304.8,240.2,290.3,251.2
	L290.3,251.2z M408.3,113.5c-162.6,0-294.8,132.3-294.8,294.8s132.3,294.8,294.8,294.8s294.8-132.3,294.8-294.8
	S570.8,113.5,408.3,113.5z M408.3,637.5c-126.5,0-229.3-102.9-229.3-229.3s102.9-229.3,229.3-229.3s229.3,102.9,229.3,229.3
	S534.7,637.6,408.3,637.5L408.3,637.5z M408.3,211.8c-18.1,0-32.7,14.7-32.7,32.8s14.7,32.7,32.7,32.7c18.1,0,32.7-14.7,32.7-32.7
	C441.1,226.4,426.3,211.8,408.3,211.8L408.3,211.8z M290.3,251.2c-49.3,37.2-78.4,95.3-78.6,157.1c0.3,18.1,15.2,32.5,33.3,32.2
	c17.7-0.3,31.9-14.6,32.2-32.2c-0.1-41.2,19.3-80.2,52.4-104.8c14.5-10.9,17.4-31.4,6.5-45.9C325.3,243.1,304.8,240.2,290.3,251.2
	L290.3,251.2z M336.2,257.7c-10.9-14.5-31.4-17.4-45.9-6.5c-49.3,37.2-78.4,95.3-78.6,157.1c0.3,18.1,15.2,32.5,33.3,32.2
	c17.7-0.3,31.9-14.6,32.2-32.2c-0.1-41.2,19.3-80.2,52.4-104.8C344.1,292.6,347,272.1,336.2,257.7L336.2,257.7z M408.4,211.8
	c-18.1,0-32.7,14.7-32.7,32.8s14.7,32.7,32.8,32.7c18.1,0,32.7-14.7,32.7-32.7C441.1,226.4,426.4,211.8,408.4,211.8
	C408.4,211.8,408.3,211.8,408.4,211.8L408.4,211.8z M408.4,211.8c-18.1,0-32.7,14.7-32.7,32.8s14.7,32.7,32.8,32.7
	c18.1,0,32.7-14.7,32.7-32.7C441.1,226.4,426.4,211.8,408.4,211.8C408.4,211.8,408.3,211.8,408.4,211.8L408.4,211.8z M336.2,257.7
	c-10.9-14.5-31.4-17.4-45.9-6.5c-49.3,37.2-78.4,95.3-78.6,157.1c0.3,18.1,15.2,32.5,33.3,32.2c17.7-0.3,31.9-14.6,32.2-32.2
	c-0.1-41.2,19.3-80.2,52.4-104.8C344.1,292.6,347,272.1,336.2,257.7L336.2,257.7z M336.2,257.7c-10.9-14.5-31.4-17.4-45.9-6.5
	c-49.3,37.2-78.4,95.3-78.6,157.1c0.3,18.1,15.2,32.5,33.3,32.2c17.7-0.3,31.9-14.6,32.2-32.2c-0.1-41.2,19.3-80.2,52.4-104.8
	C344.1,292.6,347,272.1,336.2,257.7L336.2,257.7z M408.4,211.8c-18.1,0-32.7,14.7-32.7,32.8s14.7,32.7,32.8,32.7
	c18.1,0,32.7-14.7,32.7-32.7C441.1,226.4,426.4,211.8,408.4,211.8C408.4,211.8,408.3,211.8,408.4,211.8L408.4,211.8z M408.4,211.8
	c-18.1,0-32.7,14.7-32.7,32.8s14.7,32.7,32.8,32.7c18.1,0,32.7-14.7,32.7-32.7C441.1,226.4,426.4,211.8,408.4,211.8
	C408.4,211.8,408.3,211.8,408.4,211.8L408.4,211.8z M290.3,251.2c-49.3,37.2-78.4,95.3-78.6,157.1c0.3,18.1,15.2,32.5,33.3,32.2
	c17.7-0.3,31.9-14.6,32.2-32.2c-0.1-41.2,19.3-80.2,52.4-104.8c14.5-10.9,17.4-31.4,6.5-45.9C325.3,243.1,304.8,240.2,290.3,251.2
	L290.3,251.2z M408.3,113.5c-162.6,0-294.8,132.3-294.8,294.8s132.3,294.8,294.8,294.8s294.8-132.3,294.8-294.8
	S570.8,113.5,408.3,113.5z M408.3,637.5c-126.5,0-229.3-102.9-229.3-229.3s102.9-229.3,229.3-229.3s229.3,102.9,229.3,229.3
	S534.7,637.6,408.3,637.5L408.3,637.5z M408.3,211.8c-18.1,0-32.7,14.7-32.7,32.8s14.7,32.7,32.7,32.7c18.1,0,32.7-14.7,32.7-32.7
	C441.1,226.4,426.3,211.8,408.3,211.8L408.3,211.8z M290.3,251.2c-49.3,37.2-78.4,95.3-78.6,157.1c0.3,18.1,15.2,32.5,33.3,32.2
	c17.7-0.3,31.9-14.6,32.2-32.2c-0.1-41.2,19.3-80.2,52.4-104.8c14.5-10.9,17.4-31.4,6.5-45.9C325.3,243.1,304.8,240.2,290.3,251.2
	L290.3,251.2z M336.2,257.7c-10.9-14.5-31.4-17.4-45.9-6.5c-49.3,37.2-78.4,95.3-78.6,157.1c0.3,18.1,15.2,32.5,33.3,32.2
	c17.7-0.3,31.9-14.6,32.2-32.2c-0.1-41.2,19.3-80.2,52.4-104.8C344.1,292.6,347,272.1,336.2,257.7L336.2,257.7z M408.4,211.8
	c-18.1,0-32.7,14.7-32.7,32.8s14.7,32.7,32.8,32.7c18.1,0,32.7-14.7,32.7-32.7C441.1,226.4,426.4,211.8,408.4,211.8
	C408.4,211.8,408.3,211.8,408.4,211.8L408.4,211.8z M408.4,211.8c-18.1,0-32.7,14.7-32.7,32.8s14.7,32.7,32.8,32.7
	c18.1,0,32.7-14.7,32.7-32.7C441.1,226.4,426.4,211.8,408.4,211.8C408.4,211.8,408.3,211.8,408.4,211.8L408.4,211.8z M336.2,257.7
	c-10.9-14.5-31.4-17.4-45.9-6.5c-49.3,37.2-78.4,95.3-78.6,157.1c0.3,18.1,15.2,32.5,33.3,32.2c17.7-0.3,31.9-14.6,32.2-32.2
	c-0.1-41.2,19.3-80.2,52.4-104.8C344.1,292.6,347,272.1,336.2,257.7L336.2,257.7z M336.2,257.7c-10.9-14.5-31.4-17.4-45.9-6.5
	c-49.3,37.2-78.4,95.3-78.6,157.1c0.3,18.1,15.2,32.5,33.3,32.2c17.7-0.3,31.9-14.6,32.2-32.2c-0.1-41.2,19.3-80.2,52.4-104.8
	C344.1,292.6,347,272.1,336.2,257.7L336.2,257.7z M408.4,211.8c-18.1,0-32.7,14.7-32.7,32.8s14.7,32.7,32.8,32.7
	c18.1,0,32.7-14.7,32.7-32.7C441.1,226.4,426.4,211.8,408.4,211.8C408.4,211.8,408.3,211.8,408.4,211.8L408.4,211.8z M408.4,211.8
	c-18.1,0-32.7,14.7-32.7,32.8s14.7,32.7,32.8,32.7c18.1,0,32.7-14.7,32.7-32.7C441.1,226.4,426.4,211.8,408.4,211.8
	C408.4,211.8,408.3,211.8,408.4,211.8L408.4,211.8z M290.3,251.2c-49.3,37.2-78.4,95.3-78.6,157.1c0.3,18.1,15.2,32.5,33.3,32.2
	c17.7-0.3,31.9-14.6,32.2-32.2c-0.1-41.2,19.3-80.2,52.4-104.8c14.5-10.9,17.4-31.4,6.5-45.9C325.3,243.1,304.8,240.2,290.3,251.2
	L290.3,251.2z M408.3,113.5c-162.6,0-294.8,132.3-294.8,294.8s132.3,294.8,294.8,294.8s294.8-132.3,294.8-294.8
	S570.8,113.5,408.3,113.5z M408.3,637.5c-126.5,0-229.3-102.9-229.3-229.3s102.9-229.3,229.3-229.3s229.3,102.9,229.3,229.3
	S534.7,637.6,408.3,637.5L408.3,637.5z M408.3,211.8c-18.1,0-32.7,14.7-32.7,32.8s14.7,32.7,32.7,32.7c18.1,0,32.7-14.7,32.7-32.7
	C441.1,226.4,426.3,211.8,408.3,211.8L408.3,211.8z M290.3,251.2c-49.3,37.2-78.4,95.3-78.6,157.1c0.3,18.1,15.2,32.5,33.3,32.2
	c17.7-0.3,31.9-14.6,32.2-32.2c-0.1-41.2,19.3-80.2,52.4-104.8c14.5-10.9,17.4-31.4,6.5-45.9C325.3,243.1,304.8,240.2,290.3,251.2
	L290.3,251.2z M408.3,113.5c-162.6,0-294.8,132.3-294.8,294.8s132.3,294.8,294.8,294.8s294.8-132.3,294.8-294.8
	S570.8,113.5,408.3,113.5z M408.3,637.5c-126.5,0-229.3-102.9-229.3-229.3s102.9-229.3,229.3-229.3s229.3,102.9,229.3,229.3
	S534.7,637.6,408.3,637.5L408.3,637.5z M408.3,211.8c-18.1,0-32.7,14.7-32.7,32.8s14.7,32.7,32.7,32.7c18.1,0,32.7-14.7,32.7-32.7
	C441.1,226.4,426.3,211.8,408.3,211.8L408.3,211.8z M290.3,251.2c-49.3,37.2-78.4,95.3-78.6,157.1c0.3,18.1,15.2,32.5,33.3,32.2
	c17.7-0.3,31.9-14.6,32.2-32.2c-0.1-41.2,19.3-80.2,52.4-104.8c14.5-10.9,17.4-31.4,6.5-45.9C325.3,243.1,304.8,240.2,290.3,251.2
	L290.3,251.2z M1032.8,885.3L748.6,604.2c34.6-59.5,52.7-127,52.7-195.8c0-216.7-176.3-393.1-393.1-393.1S15.2,191.6,15.2,408.3
	s176.3,393.1,393.1,393.1c68.8,0,136.4-18.2,195.8-52.8l281.4,284.3c39.9,41.4,105.9,42.7,147.4,2.8c41.4-39.9,42.7-105.9,2.8-147.4
	C1034.7,887.3,1033.7,886.3,1032.8,885.3L1032.8,885.3z M408.4,735.9c-180.7,0-327.6-146.9-327.6-327.5S227.6,80.8,408.3,80.8
	s327.5,146.9,327.5,327.5S588.9,735.9,408.4,735.9L408.4,735.9z M702.9,755.3l-44-44.4c18.8-15.6,36.3-33,51.9-51.9l44.4,44
	L702.9,755.3z M991.3,979.4c-1.1-1.5-1.6-3.2-3-4.6L782.2,768.7l19.6-19.6l184.7,182.8C999.5,944.8,1000.7,964.4,991.3,979.4z
	 M408.3,113.5c-162.6,0-294.8,132.3-294.8,294.8s132.3,294.8,294.8,294.8s294.8-132.3,294.8-294.8S570.8,113.5,408.3,113.5z
	 M408.3,637.5c-126.5,0-229.3-102.9-229.3-229.3s102.9-229.3,229.3-229.3s229.3,102.9,229.3,229.3S534.7,637.6,408.3,637.5
	L408.3,637.5z M408.3,211.8c-18.1,0-32.7,14.7-32.7,32.8s14.7,32.7,32.7,32.7c18.1,0,32.7-14.7,32.7-32.7
	C441.1,226.4,426.3,211.8,408.3,211.8L408.3,211.8z M290.3,251.2c-49.3,37.2-78.4,95.3-78.6,157.1c0.3,18.1,15.2,32.5,33.3,32.2
	c17.7-0.3,31.9-14.6,32.2-32.2c-0.1-41.2,19.3-80.2,52.4-104.8c14.5-10.9,17.4-31.4,6.5-45.9C325.3,243.1,304.8,240.2,290.3,251.2
	L290.3,251.2z M336.2,257.7c-10.9-14.5-31.4-17.4-45.9-6.5c-49.3,37.2-78.4,95.3-78.6,157.1c0.3,18.1,15.2,32.5,33.3,32.2
	c17.7-0.3,31.9-14.6,32.2-32.2c-0.1-41.2,19.3-80.2,52.4-104.8C344.1,292.6,347,272.1,336.2,257.7L336.2,257.7z M408.4,211.8
	c-18.1,0-32.7,14.7-32.7,32.8s14.7,32.7,32.8,32.7c18.1,0,32.7-14.7,32.7-32.7C441.1,226.4,426.4,211.8,408.4,211.8
	C408.4,211.8,408.3,211.8,408.4,211.8L408.4,211.8z M408.4,211.8c-18.1,0-32.7,14.7-32.7,32.8s14.7,32.7,32.8,32.7
	c18.1,0,32.7-14.7,32.7-32.7C441.1,226.4,426.4,211.8,408.4,211.8C408.4,211.8,408.3,211.8,408.4,211.8L408.4,211.8z M290.3,251.2
	c-49.3,37.2-78.4,95.3-78.6,157.1c0.3,18.1,15.2,32.5,33.3,32.2c17.7-0.3,31.9-14.6,32.2-32.2c-0.1-41.2,19.3-80.2,52.4-104.8
	c14.5-10.9,17.4-31.4,6.5-45.9C325.3,243.1,304.8,240.2,290.3,251.2L290.3,251.2z M408.3,113.5c-162.6,0-294.8,132.3-294.8,294.8
	s132.3,294.8,294.8,294.8s294.8-132.3,294.8-294.8S570.8,113.5,408.3,113.5z M408.3,637.5c-126.5,0-229.3-102.9-229.3-229.3
	s102.9-229.3,229.3-229.3s229.3,102.9,229.3,229.3S534.7,637.6,408.3,637.5L408.3,637.5z M408.3,211.8c-18.1,0-32.7,14.7-32.7,32.8
	s14.7,32.7,32.7,32.7c18.1,0,32.7-14.7,32.7-32.7C441.1,226.4,426.3,211.8,408.3,211.8L408.3,211.8z M290.3,251.2
	c-49.3,37.2-78.4,95.3-78.6,157.1c0.3,18.1,15.2,32.5,33.3,32.2c17.7-0.3,31.9-14.6,32.2-32.2c-0.1-41.2,19.3-80.2,52.4-104.8
	c14.5-10.9,17.4-31.4,6.5-45.9C325.3,243.1,304.8,240.2,290.3,251.2L290.3,251.2z M336.2,257.7c-10.9-14.5-31.4-17.4-45.9-6.5
	c-49.3,37.2-78.4,95.3-78.6,157.1c0.3,18.1,15.2,32.5,33.3,32.2c17.7-0.3,31.9-14.6,32.2-32.2c-0.1-41.2,19.3-80.2,52.4-104.8
	C344.1,292.6,347,272.1,336.2,257.7L336.2,257.7z M408.4,211.8c-18.1,0-32.7,14.7-32.7,32.8s14.7,32.7,32.8,32.7
	c18.1,0,32.7-14.7,32.7-32.7C441.1,226.4,426.4,211.8,408.4,211.8C408.4,211.8,408.3,211.8,408.4,211.8L408.4,211.8z M408.4,211.8
	c-18.1,0-32.7,14.7-32.7,32.8s14.7,32.7,32.8,32.7c18.1,0,32.7-14.7,32.7-32.7C441.1,226.4,426.4,211.8,408.4,211.8
	C408.4,211.8,408.3,211.8,408.4,211.8L408.4,211.8z M290.3,251.2c-49.3,37.2-78.4,95.3-78.6,157.1c0.3,18.1,15.2,32.5,33.3,32.2
	c17.7-0.3,31.9-14.6,32.2-32.2c-0.1-41.2,19.3-80.2,52.4-104.8c14.5-10.9,17.4-31.4,6.5-45.9C325.3,243.1,304.8,240.2,290.3,251.2
	L290.3,251.2z M408.3,113.5c-162.6,0-294.8,132.3-294.8,294.8s132.3,294.8,294.8,294.8s294.8-132.3,294.8-294.8
	S570.8,113.5,408.3,113.5z M408.3,637.5c-126.5,0-229.3-102.9-229.3-229.3s102.9-229.3,229.3-229.3s229.3,102.9,229.3,229.3
	S534.7,637.6,408.3,637.5L408.3,637.5z M408.3,211.8c-18.1,0-32.7,14.7-32.7,32.8s14.7,32.7,32.7,32.7c18.1,0,32.7-14.7,32.7-32.7
	C441.1,226.4,426.3,211.8,408.3,211.8L408.3,211.8z M290.3,251.2c-49.3,37.2-78.4,95.3-78.6,157.1c0.3,18.1,15.2,32.5,33.3,32.2
	c17.7-0.3,31.9-14.6,32.2-32.2c-0.1-41.2,19.3-80.2,52.4-104.8c14.5-10.9,17.4-31.4,6.5-45.9C325.3,243.1,304.8,240.2,290.3,251.2
	L290.3,251.2z M336.2,257.7c-10.9-14.5-31.4-17.4-45.9-6.5c-49.3,37.2-78.4,95.3-78.6,157.1c0.3,18.1,15.2,32.5,33.3,32.2
	c17.7-0.3,31.9-14.6,32.2-32.2c-0.1-41.2,19.3-80.2,52.4-104.8C344.1,292.6,347,272.1,336.2,257.7L336.2,257.7z M408.4,211.8
	c-18.1,0-32.7,14.7-32.7,32.8s14.7,32.7,32.8,32.7c18.1,0,32.7-14.7,32.7-32.7C441.1,226.4,426.4,211.8,408.4,211.8
	C408.4,211.8,408.3,211.8,408.4,211.8L408.4,211.8z M408.4,211.8c-18.1,0-32.7,14.7-32.7,32.8s14.7,32.7,32.8,32.7
	c18.1,0,32.7-14.7,32.7-32.7C441.1,226.4,426.4,211.8,408.4,211.8C408.4,211.8,408.3,211.8,408.4,211.8L408.4,211.8z M336.2,257.7
	c-10.9-14.5-31.4-17.4-45.9-6.5c-49.3,37.2-78.4,95.3-78.6,157.1c0.3,18.1,15.2,32.5,33.3,32.2c17.7-0.3,31.9-14.6,32.2-32.2
	c-0.1-41.2,19.3-80.2,52.4-104.8C344.1,292.6,347,272.1,336.2,257.7L336.2,257.7z M336.2,257.7c-10.9-14.5-31.4-17.4-45.9-6.5
	c-49.3,37.2-78.4,95.3-78.6,157.1c0.3,18.1,15.2,32.5,33.3,32.2c17.7-0.3,31.9-14.6,32.2-32.2c-0.1-41.2,19.3-80.2,52.4-104.8
	C344.1,292.6,347,272.1,336.2,257.7L336.2,257.7z M408.4,211.8c-18.1,0-32.7,14.7-32.7,32.8s14.7,32.7,32.8,32.7
	c18.1,0,32.7-14.7,32.7-32.7C441.1,226.4,426.4,211.8,408.4,211.8C408.4,211.8,408.3,211.8,408.4,211.8L408.4,211.8z M408.4,211.8
	c-18.1,0-32.7,14.7-32.7,32.8s14.7,32.7,32.8,32.7c18.1,0,32.7-14.7,32.7-32.7C441.1,226.4,426.4,211.8,408.4,211.8
	C408.4,211.8,408.3,211.8,408.4,211.8L408.4,211.8z M336.2,257.7c-10.9-14.5-31.4-17.4-45.9-6.5c-49.3,37.2-78.4,95.3-78.6,157.1
	c0.3,18.1,15.2,32.5,33.3,32.2c17.7-0.3,31.9-14.6,32.2-32.2c-0.1-41.2,19.3-80.2,52.4-104.8C344.1,292.6,347,272.1,336.2,257.7
	L336.2,257.7z M336.2,257.7c-10.9-14.5-31.4-17.4-45.9-6.5c-49.3,37.2-78.4,95.3-78.6,157.1c0.3,18.1,15.2,32.5,33.3,32.2
	c17.7-0.3,31.9-14.6,32.2-32.2c-0.1-41.2,19.3-80.2,52.4-104.8C344.1,292.6,347,272.1,336.2,257.7L336.2,257.7z M408.4,211.8
	c-18.1,0-32.7,14.7-32.7,32.8s14.7,32.7,32.8,32.7c18.1,0,32.7-14.7,32.7-32.7C441.1,226.4,426.4,211.8,408.4,211.8
	C408.4,211.8,408.3,211.8,408.4,211.8L408.4,211.8z M408.4,211.8c-18.1,0-32.7,14.7-32.7,32.8s14.7,32.7,32.8,32.7
	c18.1,0,32.7-14.7,32.7-32.7C441.1,226.4,426.4,211.8,408.4,211.8C408.4,211.8,408.3,211.8,408.4,211.8L408.4,211.8z M290.3,251.2
	c-49.3,37.2-78.4,95.3-78.6,157.1c0.3,18.1,15.2,32.5,33.3,32.2c17.7-0.3,31.9-14.6,32.2-32.2c-0.1-41.2,19.3-80.2,52.4-104.8
	c14.5-10.9,17.4-31.4,6.5-45.9C325.3,243.1,304.8,240.2,290.3,251.2L290.3,251.2z M408.3,113.5c-162.6,0-294.8,132.3-294.8,294.8
	s132.3,294.8,294.8,294.8s294.8-132.3,294.8-294.8S570.8,113.5,408.3,113.5z M408.3,637.5c-126.5,0-229.3-102.9-229.3-229.3
	s102.9-229.3,229.3-229.3s229.3,102.9,229.3,229.3S534.7,637.6,408.3,637.5L408.3,637.5z M408.3,211.8c-18.1,0-32.7,14.7-32.7,32.8
	s14.7,32.7,32.7,32.7c18.1,0,32.7-14.7,32.7-32.7C441.1,226.4,426.3,211.8,408.3,211.8L408.3,211.8z M290.3,251.2
	c-49.3,37.2-78.4,95.3-78.6,157.1c0.3,18.1,15.2,32.5,33.3,32.2c17.7-0.3,31.9-14.6,32.2-32.2c-0.1-41.2,19.3-80.2,52.4-104.8
	c14.5-10.9,17.4-31.4,6.5-45.9C325.3,243.1,304.8,240.2,290.3,251.2L290.3,251.2z M336.2,257.7c-10.9-14.5-31.4-17.4-45.9-6.5
	c-49.3,37.2-78.4,95.3-78.6,157.1c0.3,18.1,15.2,32.5,33.3,32.2c17.7-0.3,31.9-14.6,32.2-32.2c-0.1-41.2,19.3-80.2,52.4-104.8
	C344.1,292.6,347,272.1,336.2,257.7L336.2,257.7z M408.4,211.8c-18.1,0-32.7,14.7-32.7,32.8s14.7,32.7,32.8,32.7
	c18.1,0,32.7-14.7,32.7-32.7C441.1,226.4,426.4,211.8,408.4,211.8C408.4,211.8,408.3,211.8,408.4,211.8L408.4,211.8z M408.4,211.8
	c-18.1,0-32.7,14.7-32.7,32.8s14.7,32.7,32.8,32.7c18.1,0,32.7-14.7,32.7-32.7C441.1,226.4,426.4,211.8,408.4,211.8
	C408.4,211.8,408.3,211.8,408.4,211.8L408.4,211.8z M336.2,257.7c-10.9-14.5-31.4-17.4-45.9-6.5c-49.3,37.2-78.4,95.3-78.6,157.1
	c0.3,18.1,15.2,32.5,33.3,32.2c17.7-0.3,31.9-14.6,32.2-32.2c-0.1-41.2,19.3-80.2,52.4-104.8C344.1,292.6,347,272.1,336.2,257.7
	L336.2,257.7z M408.4,211.8c-18.1,0-32.7,14.7-32.7,32.8s14.7,32.7,32.8,32.7c18.1,0,32.7-14.7,32.7-32.7
	C441.1,226.4,426.4,211.8,408.4,211.8C408.4,211.8,408.3,211.8,408.4,211.8L408.4,211.8z"/>
</svg>
