<?xml version="1.0" encoding="utf-8"?>
<!-- Generator: Adobe Illustrator 25.4.1, SVG Export Plug-In . SVG Version: 6.00 Build 0)  -->
<svg version="1.1" id="Layer_1" xmlns="http://www.w3.org/2000/svg" xmlns:xlink="http://www.w3.org/1999/xlink" x="0px" y="0px"
	 viewBox="0 0 1080 1018.5" style="enable-background:new 0 0 1080 1018.5;" xml:space="preserve">
<style type="text/css">
	.st0{fill:#FFFFFF;}
</style>
<path class="st0" d="M1054.1,779c-0.4-25.1-4.1-110.1-32.4-151.6c-18.5-27.1-42.2-31.1-54.7-31.1c-3.9,0-7.8,0.4-11.6,1.1
	c-5.7,1.1-11.5,2.7-18.1,4.4l-0.7,0.2c-23.7,6.3-59.4,15.9-119,15.9c-19.3,0-40-1-61.4-3.1c-32.8-18.5-70.2-28.2-108.2-28.2
	c-43.5,0-86.3,12.6-123.8,36.3l-18.8,11.9l-114.2,4.1h-0.3c-17.2,0-33.4,3.6-47.6,10.5l-34.5-115c-6.3-21.2-19.1-39.2-36.9-52.3
	c-17.2-12.6-38.3-19.5-59.5-19.5c-9.1,0-18.1,1.2-26.8,3.6c-7.8-5.9-16.5-10.7-25.8-13.9c-10.5-3.8-21.6-5.7-33-5.7
	c-15.1,0-29.9,3.3-44.1,9.8c-49.7,22.7-70.5,76.7-48.4,125.7c0,0.1,102,222.9,102,222.9c4.3,9.4,11.3,17.1,20.3,22.2l215.5,123.4
	c27.2,15.6,56.5,31.7,88.7,42.7c28,9.6,56,12.4,80,14.3c12.9,1,25.9,1.5,39.8,1.5c51.2,0,100.5-6.7,148.3-13.2
	c19-2.6,40.5-5.5,61.1-7.8c16-1.8,36.7-2.7,59.8-2.7c31.9,0,64.9,1.9,82.1,4.7c4.6,0.8,9.3,1.1,13.9,1.1c17.2,0,49.8-5.8,74.3-44.2
	C1051.5,898.4,1054.9,820.9,1054.1,779z M942.2,929.5c-34.3-5.6-109.4-7.8-158.6-2.5c-21.1,2.3-42.2,5.2-62.7,8
	c-59.8,8.2-116.3,15.9-175.1,11.4c-25-1.9-45.6-4.5-64.8-11.1c-27.2-9.3-52.5-23.3-78.1-37.9L190.8,776L90.5,556.8
	c-6.8-14.9-3.8-34.5,18-44.5c13.3-6.1,24.2-4.5,30.9-2.1c8.2,2.8,14.9,8.8,18.6,16.6l1.1,2.2l6.5,13.4l8,16.4l76.9,158.4
	c1.2,2.5,3.3,4.6,5.8,5.7l50.5,23.3l11.8,5.5l11.5,5.3l1.4,0.7c8.5,22.3,29,36.3,56.5,36.7l116.5,1.7h128.1
	c6.7,0,12.2-5.5,12.1-12.2c0-6.7-5.4-12.1-12.1-12.1H504.8l-116.3-1.6c-18-0.3-30.3-8.6-34.8-23c-0.1-0.9-0.4-1.8-0.7-2.7
	c-0.9-3.8-1.3-7.8-1.2-11.7c0.3-8.1,3.6-15.8,9.3-21.5c7.2-7.3,17.8-11.2,31.2-10.9l128.9-4.6c2.1-0.1,4.2-0.7,6.1-1.9l30.1-19.1
	c53-33.6,118.3-35.7,170.5-5.6c2.1,1.2,4.1,2.4,6,3.7c1.6,1,3.4,1.7,5.3,1.9c115.6,12.8,179.4-4.2,213.6-13.4
	c6.1-1.6,10.9-2.9,14.3-3.7c17.8,5.8,38,130.8,16.5,218.4C978.1,897.7,965.7,933.3,942.2,929.5z M540,9.3
	c-150.7,0-273.4,122.6-273.4,273.4S389.3,556,540,556c150.7,0,273.4-122.6,273.4-273.4S690.7,9.3,540,9.3z M540,479.7
	c-108.6,0-197-88.4-197-197c0-108.6,88.4-197,197-197v0c108.7,0,197,88.4,197,197S648.7,479.7,540,479.7z M617.4,337.5L617.4,337.5
	c0.3,17.9-5.5,33.4-17.4,46c-7.4,8.2-18,14.3-31.2,17.9v15.2c0,5.6-4.5,10.1-10.1,10.1c0,0,0,0,0,0h-37.3c-5.6,0-10.1-4.5-10.1-10.1
	v-16.6c-4.9-1.6-9.6-3.8-14-6.4c-10.1-6-18.5-14.6-24.3-24.8c-6-10.8-9.5-22.8-10.2-35.1c-0.4-5.6,3.8-10.5,9.4-10.8
	c0,0,0.1,0,0.1,0l38.7-2.2c5.3-0.3,9.9,3.5,10.6,8.7c1.4,10.1,4.4,17.2,9.1,21.2c2.5,2.4,5.8,3.7,9.3,3.7c6.5-0.2,10.8-2.3,14.3-6.7
	c1.3-1.6,2-4.5,2-8.2c0-5.9-4-12.4-11.8-19.2c-6-4.5-15.1-11.5-26.9-20.5l-8.7-6.7c-14.6-11.4-24.7-21.4-30.9-30.6
	c-7.1-10.8-10.8-23.4-10.8-36.2c0-23.4,10-41.4,29.6-53.5c4.7-2.8,9.6-5,14.8-6.6v-17.1c0-5.6,4.5-10.1,10.1-10.1c0,0,0,0,0,0h37.3
	c5.6,0,10.1,4.5,10.1,10.1c0,0,0,0,0,0v16.9c4.4,1.3,8.6,3,12.7,5c9.4,4.6,17.4,11.6,23.2,20.3c5.9,8.9,9.6,19.1,10.6,29.7
	c0.6,5.4-3.2,10.3-8.6,11.1l-39,5.7c-2.7,0.4-5.4-0.3-7.6-2c-2.2-1.6-3.6-4.1-3.9-6.8c-0.9-6.6-3-11.5-6.4-14.8
	c-1.8-1.7-4.8-2.5-9.1-2.5c-5.3,0-7.4,1.9-8.8,3.8c-1.9,2.6-2.8,5.8-2.8,10c0,7,4.3,14.8,12.9,23c3.6,3.5,9.2,7.8,16.6,12.7
	c10.2,6.8,16.4,11.3,19.7,14.1c10.5,8.4,19,17.2,25,25.8c2.6,3.7,4.9,7.5,7,11.5C614.8,321.4,617.2,329.8,617.4,337.5z"/>
</svg>
