<?xml version="1.0" encoding="utf-8"?>
<!-- Generator: Adobe Illustrator 25.4.1, SVG Export Plug-In . SVG Version: 6.00 Build 0)  -->
<svg version="1.1" id="Layer_1" xmlns="http://www.w3.org/2000/svg" xmlns:xlink="http://www.w3.org/1999/xlink" x="0px" y="0px"
	 viewBox="0 0 1080 1015.8" style="enable-background:new 0 0 1080 1015.8;" xml:space="preserve">
<style type="text/css">
	.st0{fill-rule:evenodd;clip-rule:evenodd;fill:#FFFFFF;}
</style>
<path class="st0" d="M731.3,974.8c-44,0-79.7-35.8-79.7-79.7c0-44,35.8-79.7,79.7-79.7c44,0,79.7,35.8,79.7,79.7
	C811,939.1,775.2,974.8,731.3,974.8z M470.6,963.2l0,11.7c0,0,0,0,0,0c-21.3,0-41.3-8.3-56.4-23.4c-15.1-15.1-23.3-35.1-23.3-56.4
	c0-43.9,35.8-79.7,79.7-79.7c43.9,0,79.7,35.8,79.7,79.7c0,44-35.8,79.7-79.7,79.7C470.6,974.8,470.6,963.2,470.6,963.2z
	 M421.1,780.3c-53.2,0-91-18.3-115.6-56c-21.5-33-29.8-76.3-36.4-117.7l-77.9-474.1H90.1c-25.2,0-45.7-20.5-45.7-45.7
	S64.9,41,90.1,41h140.2c26.7,0.1,42.7,13.8,46.2,39.5l17.8,131.9H995c14.7,0,25.7,4.6,32.7,13.5c11.8,15.2,7.9,38.4,3.8,54.5
	l-83.5,334c-1.2,4.7-2.3,9.5-3.5,14.2c-9.4,38.4-18.2,74.7-38.9,103.1c-23.8,32.6-59.9,48.5-110.2,48.5H421.1z M358.5,594.1
	c0.8,4.7,1.5,9.5,2.2,14.2c7.5,50.2,15.3,80.6,60.4,80.6h374.3c42.2,0,50-26,59.4-68.4c1.2-5.5,2.5-11.2,3.8-16.7H547
	c-25.1,0-45.6-20.5-45.7-45.6c0-25.2,20.5-45.7,45.7-45.7h334.5l13.6-54.4H463.8c-25.2,0-45.7-20.5-45.7-45.7
	c0-25.2,20.5-45.7,45.7-45.7H918l15.7-62.7H310.1L358.5,594.1z"/>
</svg>
