<svg fill="currentColor" xmlns="http://www.w3.org/2000/svg" viewBox="0 0 19.65 15.96"><path d="M18.81,7c0,.17,0,.35,0,.52A11.38,11.38,0,0,1,7.36,19a11.4,11.4,0,0,1-6.19-1.81,7.94,7.94,0,0,0,1,0,8.05,8.05,0,0,0,5-1.72,4,4,0,0,1-3.77-2.79,6.32,6.32,0,0,0,.76.06,4.11,4.11,0,0,0,1.06-.14A4,4,0,0,1,2,8.68v0a4,4,0,0,0,1.82.51A4,4,0,0,1,2,5.79a4,4,0,0,1,.55-2A11.43,11.43,0,0,0,10.85,8a4.71,4.71,0,0,1-.1-.92,4,4,0,0,1,7-2.76,7.93,7.93,0,0,0,2.56-1,4.07,4.07,0,0,1-1.77,2.22,8,8,0,0,0,2.32-.63A8.91,8.91,0,0,1,18.81,7Z" transform="translate(-1.17 -3.02)" style=""/></svg>